<?xml version="1.0" encoding="UTF-8" standalone="no"?>
<!DOCTYPE svg PUBLIC "-//W3C//DTD SVG 1.1//EN"
 "http://www.w3.org/Graphics/SVG/1.1/DTD/svg11.dtd">
<!-- Generated by graphviz version 9.0.0 (20230911.1827)
 -->
<!-- Title: Azure DevOps Infrastructure Pages: 1 -->
<svg width="1156pt" height="993pt"
 viewBox="0.00 0.00 1156.00 993.40" xmlns="http://www.w3.org/2000/svg" xmlns:xlink="http://www.w3.org/1999/xlink">
<g id="graph0" class="graph" transform="scale(1 1) rotate(0) translate(144 849.4)">
<title>Azure DevOps Infrastructure</title>
<polygon fill="white" stroke="none" points="-144,144 -144,-849.4 1012,-849.4 1012,144 -144,144"/>
<text text-anchor="middle" x="434" y="-8.5" font-family="Sans-Serif" font-size="15.00" fill="#2d3436">Azure DevOps Infrastructure</text>
<g id="clust1" class="cluster">
<title>cluster_Subscription: DevOps</title>
<path fill="#e5f5fd" stroke="#aeb6be" d="M20,-34C20,-34 848,-34 848,-34 854,-34 860,-40 860,-46 860,-46 860,-685.4 860,-685.4 860,-691.4 854,-697.4 848,-697.4 848,-697.4 20,-697.4 20,-697.4 14,-697.4 8,-691.4 8,-685.4 8,-685.4 8,-46 8,-46 8,-40 14,-34 20,-34"/>
<text text-anchor="middle" x="69.17" y="-682.6" font-family="Sans-Serif" font-size="12.00" fill="#2d3436">Subscription: DevOps</text>
</g>
<g id="clust2" class="cluster">
<title>cluster_vnet&#45;devops (10.0.0.0/16)</title>
<path fill="#ebf3e7" stroke="#aeb6be" d="M127,-251.8C127,-251.8 811,-251.8 811,-251.8 817,-251.8 823,-257.8 823,-263.8 823,-263.8 823,-655 823,-655 823,-661 817,-667 811,-667 811,-667 127,-667 127,-667 121,-667 115,-661 115,-655 115,-655 115,-263.8 115,-263.8 115,-257.8 121,-251.8 127,-251.8"/>
<text text-anchor="middle" x="184.99" y="-652.2" font-family="Sans-Serif" font-size="12.00" fill="#2d3436">vnet&#45;devops (10.0.0.0/16)</text>
</g>
<g id="clust3" class="cluster">
<title>cluster_Subnets</title>
<path fill="#ece8f6" stroke="#aeb6be" d="M135,-259.8C135,-259.8 803,-259.8 803,-259.8 809,-259.8 815,-265.8 815,-271.8 815,-271.8 815,-451.8 815,-451.8 815,-457.8 809,-463.8 803,-463.8 803,-463.8 135,-463.8 135,-463.8 129,-463.8 123,-457.8 123,-451.8 123,-451.8 123,-271.8 123,-271.8 123,-265.8 129,-259.8 135,-259.8"/>
<text text-anchor="middle" x="150" y="-449" font-family="Sans-Serif" font-size="12.00" fill="#2d3436">Subnets</text>
</g>
<g id="clust4" class="cluster">
<title>cluster_rg&#45;compute</title>
<path fill="#ebf3e7" stroke="#aeb6be" d="M172,-42C172,-42 264,-42 264,-42 270,-42 276,-48 276,-54 276,-54 276,-205.2 276,-205.2 276,-211.2 270,-217.2 264,-217.2 264,-217.2 172,-217.2 172,-217.2 166,-217.2 160,-211.2 160,-205.2 160,-205.2 160,-54 160,-54 160,-48 166,-42 172,-42"/>
<text text-anchor="middle" x="195.66" y="-202.4" font-family="Sans-Serif" font-size="12.00" fill="#2d3436">rg&#45;compute</text>
</g>
<g id="clust5" class="cluster">
<title>cluster_rg&#45;data</title>
<path fill="#ebf3e7" stroke="#aeb6be" d="M28,-42C28,-42 120,-42 120,-42 126,-42 132,-48 132,-54 132,-54 132,-205.2 132,-205.2 132,-211.2 126,-217.2 120,-217.2 120,-217.2 28,-217.2 28,-217.2 22,-217.2 16,-211.2 16,-205.2 16,-205.2 16,-54 16,-54 16,-48 22,-42 28,-42"/>
<text text-anchor="middle" x="40.99" y="-202.4" font-family="Sans-Serif" font-size="12.00" fill="#2d3436">rg&#45;data</text>
</g>
<g id="clust6" class="cluster">
<title>cluster_rg&#45;networking</title>
<path fill="#ebf3e7" stroke="#aeb6be" d="M316,-42C316,-42 840,-42 840,-42 846,-42 852,-48 852,-54 852,-54 852,-205.2 852,-205.2 852,-211.2 846,-217.2 840,-217.2 840,-217.2 316,-217.2 316,-217.2 310,-217.2 304,-211.2 304,-205.2 304,-205.2 304,-54 304,-54 304,-48 310,-42 316,-42"/>
<text text-anchor="middle" x="346.32" y="-202.4" font-family="Sans-Serif" font-size="12.00" fill="#2d3436">rg&#45;networking</text>
</g>
<!-- 45608c3e9fa34cc4bcaffb0977c77504 -->
<g id="node1" class="node">
<title>45608c3e9fa34cc4bcaffb0977c77504</title>
<image xlink:href="https://clouda.ai/var/task/resources/azure/network/virtual-networks.png" width="100.8px" height="100.8px" preserveAspectRatio="xMinYMin meet" x="473.6" y="-618.6"/>
<text text-anchor="middle" x="524" y="-503.7" font-family="Sans-Serif" font-size="13.00" fill="#2d3436">vnet&#45;devops</text>
</g>
<!-- dbdeecb045fd4bc39b581623f84f963c -->
<g id="node2" class="node">
<title>dbdeecb045fd4bc39b581623f84f963c</title>
<image xlink:href="https://clouda.ai/var/task/resources/azure/network/virtual-networks.png" width="100.8px" height="100.8px" preserveAspectRatio="xMinYMin meet" x="130.6" y="-401"/>
<text text-anchor="middle" x="181" y="-287.3" font-family="Sans-Serif" font-size="13.00" fill="#2d3436">snet&#45;mgmt</text>
<text text-anchor="middle" x="181" y="-271.7" font-family="Sans-Serif" font-size="13.00" fill="#2d3436">10.0.0.0/27</text>
</g>
<!-- 45608c3e9fa34cc4bcaffb0977c77504&#45;&gt;dbdeecb045fd4bc39b581623f84f963c -->
<g id="edge1" class="edge">
<title>45608c3e9fa34cc4bcaffb0977c77504&#45;&gt;dbdeecb045fd4bc39b581623f84f963c</title>
<path fill="none" stroke="#7b8894" d="M473.76,-590C378.49,-590 181,-590 181,-590 181,-590 181,-444.84 181,-444.84"/>
<polygon fill="#7b8894" stroke="#7b8894" points="184.5,-444.84 181,-434.84 177.5,-444.84 184.5,-444.84"/>
</g>
<!-- 319f3abc44f84f4ba4c7a296aa3a678c -->
<g id="node3" class="node">
<title>319f3abc44f84f4ba4c7a296aa3a678c</title>
<image xlink:href="https://clouda.ai/var/task/resources/azure/network/virtual-networks.png" width="100.8px" height="100.8px" preserveAspectRatio="xMinYMin meet" x="706.6" y="-401"/>
<text text-anchor="middle" x="757" y="-287.3" font-family="Sans-Serif" font-size="13.00" fill="#2d3436">snet&#45;aks</text>
<text text-anchor="middle" x="757" y="-271.7" font-family="Sans-Serif" font-size="13.00" fill="#2d3436">10.0.4.0/23</text>
</g>
<!-- 45608c3e9fa34cc4bcaffb0977c77504&#45;&gt;319f3abc44f84f4ba4c7a296aa3a678c -->
<g id="edge2" class="edge">
<title>45608c3e9fa34cc4bcaffb0977c77504&#45;&gt;319f3abc44f84f4ba4c7a296aa3a678c</title>
<path fill="none" stroke="#7b8894" d="M574.27,-545C642.77,-545 757,-545 757,-545 757,-545 757,-444.84 757,-444.84"/>
<polygon fill="#7b8894" stroke="#7b8894" points="760.5,-444.84 757,-434.84 753.5,-444.84 760.5,-444.84"/>
</g>
<!-- 406ea4fa8ac44a8bb36b6c12167cefc2 -->
<g id="node4" class="node">
<title>406ea4fa8ac44a8bb36b6c12167cefc2</title>
<image xlink:href="https://clouda.ai/var/task/resources/azure/network/virtual-networks.png" width="100.8px" height="100.8px" preserveAspectRatio="xMinYMin meet" x="562.6" y="-401"/>
<text text-anchor="middle" x="613" y="-287.3" font-family="Sans-Serif" font-size="13.00" fill="#2d3436">snet&#45;app</text>
<text text-anchor="middle" x="613" y="-271.7" font-family="Sans-Serif" font-size="13.00" fill="#2d3436">10.0.1.0/24</text>
</g>
<!-- 45608c3e9fa34cc4bcaffb0977c77504&#45;&gt;406ea4fa8ac44a8bb36b6c12167cefc2 -->
<g id="edge3" class="edge">
<title>45608c3e9fa34cc4bcaffb0977c77504&#45;&gt;406ea4fa8ac44a8bb36b6c12167cefc2</title>
<path fill="none" stroke="#7b8894" d="M568.5,-499.95C568.5,-499.95 568.5,-444.64 568.5,-444.64"/>
<polygon fill="#7b8894" stroke="#7b8894" points="572,-444.64 568.5,-434.64 565,-444.64 572,-444.64"/>
</g>
<!-- 35274513caf94cee970f529862097294 -->
<g id="node5" class="node">
<title>35274513caf94cee970f529862097294</title>
<image xlink:href="https://clouda.ai/var/task/resources/azure/network/virtual-networks.png" width="100.8px" height="100.8px" preserveAspectRatio="xMinYMin meet" x="274.6" y="-401"/>
<text text-anchor="middle" x="325" y="-287.3" font-family="Sans-Serif" font-size="13.00" fill="#2d3436">snet&#45;data</text>
<text text-anchor="middle" x="325" y="-271.7" font-family="Sans-Serif" font-size="13.00" fill="#2d3436">10.0.2.0/24</text>
</g>
<!-- 45608c3e9fa34cc4bcaffb0977c77504&#45;&gt;35274513caf94cee970f529862097294 -->
<g id="edge4" class="edge">
<title>45608c3e9fa34cc4bcaffb0977c77504&#45;&gt;35274513caf94cee970f529862097294</title>
<path fill="none" stroke="#7b8894" d="M473.78,-545C414.83,-545 325,-545 325,-545 325,-545 325,-444.84 325,-444.84"/>
<polygon fill="#7b8894" stroke="#7b8894" points="328.5,-444.84 325,-434.84 321.5,-444.84 328.5,-444.84"/>
</g>
<!-- 9bc2a7be519641e499b70c5398208da5 -->
<g id="node6" class="node">
<title>9bc2a7be519641e499b70c5398208da5</title>
<image xlink:href="https://clouda.ai/var/task/resources/azure/network/virtual-networks.png" width="100.8px" height="100.8px" preserveAspectRatio="xMinYMin meet" x="418.6" y="-401"/>
<text text-anchor="middle" x="469" y="-287.3" font-family="Sans-Serif" font-size="13.00" fill="#2d3436">AzureBastionSubnet</text>
<text text-anchor="middle" x="469" y="-271.7" font-family="Sans-Serif" font-size="13.00" fill="#2d3436">10.0.0.64/26</text>
</g>
<!-- 45608c3e9fa34cc4bcaffb0977c77504&#45;&gt;9bc2a7be519641e499b70c5398208da5 -->
<g id="edge5" class="edge">
<title>45608c3e9fa34cc4bcaffb0977c77504&#45;&gt;9bc2a7be519641e499b70c5398208da5</title>
<path fill="none" stroke="#7b8894" d="M496.5,-499.95C496.5,-499.95 496.5,-444.64 496.5,-444.64"/>
<polygon fill="#7b8894" stroke="#7b8894" points="500,-444.64 496.5,-434.64 493,-444.64 500,-444.64"/>
</g>
<!-- 5fbaeb0c44344c848cb0963941caac72 -->
<g id="node12" class="node">
<title>5fbaeb0c44344c848cb0963941caac72</title>
<image xlink:href="https://clouda.ai/var/task/resources/azure/network/dns-zones.png" width="100.8px" height="100.8px" preserveAspectRatio="xMinYMin meet" x="743.6" y="-168.8"/>
<text text-anchor="middle" x="794" y="-53.9" font-family="Sans-Serif" font-size="13.00" fill="#2d3436">private dns zone</text>
</g>
<!-- 45608c3e9fa34cc4bcaffb0977c77504&#45;&gt;5fbaeb0c44344c848cb0963941caac72 -->
<g id="edge12" class="edge">
<title>45608c3e9fa34cc4bcaffb0977c77504&#45;&gt;5fbaeb0c44344c848cb0963941caac72</title>
<path fill="none" stroke="#7b8894" d="M574.19,-590C660.04,-590 825.9,-590 825.9,-590 825.9,-590 825.9,-198.24 825.9,-198.24"/>
<polygon fill="#7b8894" stroke="#7b8894" points="829.4,-198.24 825.9,-188.24 822.4,-198.24 829.4,-198.24"/>
</g>
<!-- 45e4b8e7bcf34da18d613d985411cc12 -->
<g id="node9" class="node">
<title>45e4b8e7bcf34da18d613d985411cc12</title>
<image xlink:href="https://clouda.ai/var/task/resources/azure/network/network-security-groups-classic.png" width="100.8px" height="100.8px" preserveAspectRatio="xMinYMin meet" x="599.6" y="-168.8"/>
<text text-anchor="middle" x="650" y="-53.9" font-family="Sans-Serif" font-size="13.00" fill="#2d3436">nsg&#45;snet&#45;app</text>
</g>
<!-- 406ea4fa8ac44a8bb36b6c12167cefc2&#45;&gt;45e4b8e7bcf34da18d613d985411cc12 -->
<g id="edge8" class="edge">
<title>406ea4fa8ac44a8bb36b6c12167cefc2&#45;&gt;45e4b8e7bcf34da18d613d985411cc12</title>
<path fill="none" stroke="#7b8894" d="M631.5,-268.08C631.5,-268.08 631.5,-198 631.5,-198"/>
<polygon fill="#7b8894" stroke="#7b8894" points="635,-198 631.5,-188 628,-198 635,-198"/>
</g>
<!-- 5a44a560163545b183b222f8b8e666b7 -->
<g id="node10" class="node">
<title>5a44a560163545b183b222f8b8e666b7</title>
<image xlink:href="https://clouda.ai/var/task/resources/azure/network/network-security-groups-classic.png" width="100.8px" height="100.8px" preserveAspectRatio="xMinYMin meet" x="311.6" y="-168.8"/>
<text text-anchor="middle" x="362" y="-53.9" font-family="Sans-Serif" font-size="13.00" fill="#2d3436">nsg&#45;snet&#45;data</text>
</g>
<!-- 35274513caf94cee970f529862097294&#45;&gt;5a44a560163545b183b222f8b8e666b7 -->
<g id="edge9" class="edge">
<title>35274513caf94cee970f529862097294&#45;&gt;5a44a560163545b183b222f8b8e666b7</title>
<path fill="none" stroke="#7b8894" d="M343.5,-268.08C343.5,-268.08 343.5,-198 343.5,-198"/>
<polygon fill="#7b8894" stroke="#7b8894" points="347,-198 343.5,-188 340,-198 347,-198"/>
</g>
<!-- 6e47da4a960949b1bfba3ebc7ff229e9 -->
<g id="node11" class="node">
<title>6e47da4a960949b1bfba3ebc7ff229e9</title>
<image xlink:href="https://clouda.ai/var/task/resources/azure/storage/storage-accounts.png" width="100.8px" height="100.8px" preserveAspectRatio="xMinYMin meet" x="23.6" y="-168.8"/>
<text text-anchor="middle" x="74" y="-53.9" font-family="Sans-Serif" font-size="13.00" fill="#2d3436">storage account</text>
</g>
<!-- 35274513caf94cee970f529862097294&#45;&gt;6e47da4a960949b1bfba3ebc7ff229e9 -->
<g id="edge11" class="edge">
<title>35274513caf94cee970f529862097294&#45;&gt;6e47da4a960949b1bfba3ebc7ff229e9</title>
<path fill="none" stroke="#7b8894" d="M293.1,-267.91C293.1,-251.91 293.1,-240 293.1,-240 293.1,-240 74,-240 74,-240 74,-240 74,-198.18 74,-198.18"/>
<polygon fill="#7b8894" stroke="#7b8894" points="77.5,-198.18 74,-188.18 70.5,-198.18 77.5,-198.18"/>
</g>
<!-- 902b1c399809436687bedde3bae9c213 -->
<g id="node7" class="node">
<title>902b1c399809436687bedde3bae9c213</title>
<image xlink:href="https://clouda.ai/var/task/resources/azure/compute/vm.png" width="100.8px" height="100.8px" preserveAspectRatio="xMinYMin meet" x="167.6" y="-168.8"/>
<text text-anchor="middle" x="218" y="-53.9" font-family="Sans-Serif" font-size="13.00" fill="#2d3436">vm&#45;compute</text>
</g>
<!-- 9bc2a7be519641e499b70c5398208da5&#45;&gt;902b1c399809436687bedde3bae9c213 -->
<g id="edge6" class="edge">
<title>9bc2a7be519641e499b70c5398208da5&#45;&gt;902b1c399809436687bedde3bae9c213</title>
<path fill="none" stroke="#7b8894" d="M437.1,-268.17C437.1,-238.87 437.1,-213 437.1,-213 437.1,-213 249.9,-213 249.9,-213 249.9,-213 249.9,-198.16 249.9,-198.16"/>
<polygon fill="#7b8894" stroke="#7b8894" points="253.4,-198.16 249.9,-188.16 246.4,-198.16 253.4,-198.16"/>
<text text-anchor="middle" x="436.82" y="-229.1" font-family="Sans-Serif" font-size="13.00" fill="#2d3436">secure access</text>
</g>
<!-- 902b1c399809436687bedde3bae9c213&#45;&gt;dbdeecb045fd4bc39b581623f84f963c -->
<g id="edge10" class="edge">
<title>902b1c399809436687bedde3bae9c213&#45;&gt;dbdeecb045fd4bc39b581623f84f963c</title>
<path fill="none" stroke="#7b8894" d="M199.5,-186.5C199.5,-186.5 199.5,-256.6 199.5,-256.6"/>
<polygon fill="#7b8894" stroke="#7b8894" points="196,-256.6 199.5,-266.6 203,-256.6 196,-256.6"/>
</g>
<!-- 88ee96179e044a28b9ff310d33acae0c -->
<g id="node8" class="node">
<title>88ee96179e044a28b9ff310d33acae0c</title>
<image xlink:href="https://clouda.ai/var/task/resources/azure/compute/vm.png" width="100.8px" height="100.8px" preserveAspectRatio="xMinYMin meet" x="455.6" y="-168.8"/>
<text text-anchor="middle" x="506" y="-53.9" font-family="Sans-Serif" font-size="13.00" fill="#2d3436">bastion</text>
</g>
<!-- 88ee96179e044a28b9ff310d33acae0c&#45;&gt;9bc2a7be519641e499b70c5398208da5 -->
<g id="edge7" class="edge">
<title>88ee96179e044a28b9ff310d33acae0c&#45;&gt;9bc2a7be519641e499b70c5398208da5</title>
<path fill="none" stroke="#7b8894" d="M487.5,-186.5C487.5,-186.5 487.5,-256.6 487.5,-256.6"/>
<polygon fill="#7b8894" stroke="#7b8894" points="484,-256.6 487.5,-266.6 491,-256.6 484,-256.6"/>
</g>
</g>
</svg>
